<?xml version="1.0" encoding="UTF-8"?>
<!DOCTYPE svg PUBLIC "-//W3C//DTD SVG 1.1//EN" "http://www.w3.org/Graphics/SVG/1.1/DTD/svg11.dtd">
<svg xmlns="http://www.w3.org/2000/svg" version="1.1" width="154px" height="149px" style="shape-rendering:geometricPrecision; text-rendering:geometricPrecision; image-rendering:optimizeQuality; fill-rule:evenodd; clip-rule:evenodd" xmlns:xlink="http://www.w3.org/1999/xlink">
<g><path style="opacity:0.984" fill="#00a293" d="M 76.5,18.5 C 76.5,29.5 76.5,40.5 76.5,51.5C 76.1667,51.5 75.8333,51.5 75.5,51.5C 70.0199,49.2292 64.3532,47.5625 58.5,46.5C 51.6787,45.6715 44.6787,45.1715 37.5,45C 44.6664,43.7016 51.9998,43.035 59.5,43C 65.0658,34.6799 70.7325,26.5132 76.5,18.5 Z"/></g>
<g><path style="opacity:0.984" fill="#005f4f" d="M 76.5,18.5 C 82.5248,26.5364 88.1915,34.8698 93.5,43.5C 93.427,45.0269 94.0937,46.0269 95.5,46.5C 95.5,46.8333 95.5,47.1667 95.5,47.5C 92.2297,52.4397 88.2297,56.7731 83.5,60.5C 80.925,57.681 78.5917,54.681 76.5,51.5C 76.5,40.5 76.5,29.5 76.5,18.5 Z"/></g>
<g><path style="opacity:0.624" fill="#039d8c" d="M 93.5,43.5 C 101.008,43.0378 108.342,43.5378 115.5,45C 108.654,45.1717 101.987,45.6717 95.5,46.5C 94.0937,46.0269 93.427,45.0269 93.5,43.5 Z"/></g>
<g><path style="opacity:0.749" fill="#005544" d="M 28.5,51.5 C 29.5,52.1667 30.5,52.8333 31.5,53.5C 25.7945,53.8288 20.1278,53.4954 14.5,52.5C 19.1196,51.5067 23.7863,51.1734 28.5,51.5 Z"/></g>
<g><path style="opacity:0.471" fill="#005747" d="M 33.5,55.5 C 33.5,56.1667 33.5,56.8333 33.5,57.5C 30.8333,57.5 28.1667,57.5 25.5,57.5C 25.5,59.1667 25.5,60.8333 25.5,62.5C 22.1016,62.8204 18.7683,62.487 15.5,61.5C 18.0865,60.52 20.7531,60.1866 23.5,60.5C 23.5,58.8333 23.5,57.1667 23.5,55.5C 26.8333,55.5 30.1667,55.5 33.5,55.5 Z"/></g>
<g><path style="opacity:0.974" fill="#007666" d="M 95.5,47.5 C 100.226,46.6171 104.226,47.7838 107.5,51C 148.833,52.333 148.833,52.9997 107.5,53C 104.918,49.7185 101.584,48.7185 97.5,50C 98.376,51.586 99.376,53.086 100.5,54.5C 110.144,55.4984 119.81,55.8318 129.5,55.5C 129.5,57.1667 129.5,58.8333 129.5,60.5C 132.247,60.1866 134.914,60.52 137.5,61.5C 134.232,62.487 130.898,62.8204 127.5,62.5C 127.5,60.8333 127.5,59.1667 127.5,57.5C 119.16,57.3336 110.827,57.5003 102.5,58C 109.69,59.1352 117.023,59.9685 124.5,60.5C 118.167,61.1667 111.833,61.8333 105.5,62.5C 116.266,64.8749 127.266,66.2082 138.5,66.5C 130.521,67.6649 122.521,67.8316 114.5,67C 112.59,64.518 110.257,64.018 107.5,65.5C 107.863,66.1835 108.196,66.8501 108.5,67.5C 105.23,72.4397 101.23,76.7731 96.5,80.5C 91.3869,74.3777 87.0536,67.7111 83.5,60.5C 88.2297,56.7731 92.2297,52.4397 95.5,47.5 Z"/></g>
<g><path style="opacity:0.954" fill="#008e7f" d="M 58.5,46.5 C 64.3532,47.5625 70.0199,49.2292 75.5,51.5C 70.4025,60.0393 65.0691,68.3727 59.5,76.5C 53.7872,73.6013 48.1205,71.6013 42.5,70.5C 43.2371,68.6954 44.2371,67.0287 45.5,65.5C 43.9255,64.3691 42.2588,64.2025 40.5,65C 39.5291,66.4813 38.1958,67.3146 36.5,67.5C 36.5,66.8333 36.5,66.1667 36.5,65.5C 39.9186,63.9926 43.5852,62.9926 47.5,62.5C 41.1667,61.8333 34.8333,61.1667 28.5,60.5C 35.9769,59.9685 43.3102,59.1352 50.5,58C 44.8431,57.5006 39.1764,57.3339 33.5,57.5C 33.5,56.8333 33.5,56.1667 33.5,55.5C 39.8682,55.8297 46.2015,55.4963 52.5,54.5C 56.6638,49.6963 55.3305,48.1963 48.5,50C 47.5,51 46.5,52 45.5,53C 40.8452,53.4992 36.1785,53.6658 31.5,53.5C 30.5,52.8333 29.5,52.1667 28.5,51.5C 34.1764,51.6661 39.8431,51.4994 45.5,51C 46.5,50 47.5,49 48.5,48C 51.9194,47.7515 55.2527,47.2515 58.5,46.5 Z"/></g>
<g><path style="opacity:0.329" fill="#005949" d="M 36.5,65.5 C 36.5,66.1667 36.5,66.8333 36.5,67.5C 7.16667,66.8333 7.16667,66.1667 36.5,65.5 Z"/></g>
<g><path style="opacity:0.948" fill="#007e6e" d="M 108.5,67.5 C 109.267,68.172 109.934,69.0053 110.5,70C 119.833,70.3333 129.167,70.6667 138.5,71C 129.996,72.3043 121.329,72.971 112.5,73C 112.957,73.414 113.291,73.914 113.5,74.5C 119.5,75.1667 125.5,75.8333 131.5,76.5C 126.198,77.3295 120.864,77.8295 115.5,78C 122.5,78.6667 129.5,78.6667 136.5,78C 137.167,77.3333 137.833,76.6667 138.5,76C 143.489,75.5007 148.489,75.3341 153.5,75.5C 153.5,75.8333 153.5,76.1667 153.5,76.5C 148.821,76.3342 144.155,76.5008 139.5,77C 138.5,78 137.5,79 136.5,80C 130.167,80.3333 123.833,80.6667 117.5,81C 117.957,81.414 118.291,81.914 118.5,82.5C 125.833,83.1667 133.167,83.8333 140.5,84.5C 133.858,85.3309 127.191,85.8309 120.5,86C 121.257,87.5122 122.257,88.8455 123.5,90C 133.481,89.7872 143.481,89.6205 153.5,89.5C 153.5,89.8333 153.5,90.1667 153.5,90.5C 143.881,90.1613 134.548,91.1613 125.5,93.5C 124.448,93.3505 123.448,93.5172 122.5,94C 118.964,97.7039 115.298,101.204 111.5,104.5C 106.003,96.8445 101.003,88.8445 96.5,80.5C 101.23,76.7731 105.23,72.4397 108.5,67.5 Z"/></g>
<g><path style="opacity:0.946" fill="#007667" d="M 42.5,70.5 C 48.1205,71.6013 53.7872,73.6013 59.5,76.5C 55.1941,84.1236 50.5274,91.4569 45.5,98.5C 41.1308,96.2043 36.4641,94.3709 31.5,93C 30.244,92.5831 29.5774,91.7498 29.5,90.5C 30.6138,89.1147 31.6138,87.6147 32.5,86C 25.8085,85.8309 19.1419,85.3309 12.5,84.5C 19.8333,83.8333 27.1667,83.1667 34.5,82.5C 35.6085,80.7859 34.9418,80.1192 32.5,80.5C 32.5,79.8333 32.5,79.1667 32.5,78.5C 34.1992,78.6602 35.8659,78.4935 37.5,78C 32.1358,77.8295 26.8025,77.3295 21.5,76.5C 27.4725,75.6697 33.4725,75.1697 39.5,75C 39.9574,74.586 40.2907,74.086 40.5,73.5C 31.6903,72.9739 23.0236,72.1406 14.5,71C 23.8274,70.5002 33.1607,70.3335 42.5,70.5 Z"/></g>
<g><path style="opacity:0.971" fill="#009e8f" d="M 76.5,62.5 C 76.5,70.8333 76.5,79.1667 76.5,87.5C 75.8826,87.6107 75.3826,87.944 75,88.5C 70.7108,86.4592 66.2108,85.1258 61.5,84.5C 66.5129,77.1296 71.5129,69.7962 76.5,62.5 Z"/></g>
<g><path style="opacity:0.561" fill="#004f3d" d="M -0.5,76.5 C -0.5,76.1667 -0.5,75.8333 -0.5,75.5C 10.3801,76.9778 21.3801,77.9778 32.5,78.5C 32.5,79.1667 32.5,79.8333 32.5,80.5C 27.1563,80.666 21.8229,80.4994 16.5,80C 15.5,79 14.5,78 13.5,77C 8.8452,76.5008 4.17853,76.3342 -0.5,76.5 Z"/></g>
<g><path style="opacity:1" fill="#006958" d="M 76.5,62.5 C 82.3163,70.1191 87.6497,78.1191 92.5,86.5C 88.0982,92.4086 83.0982,97.9086 77.5,103C 78.056,103.383 78.3893,103.883 78.5,104.5C 77.8333,104.5 77.1667,104.5 76.5,104.5C 76.1667,104.5 75.8333,104.5 75.5,104.5C 76.4524,98.9252 76.7857,93.2586 76.5,87.5C 76.5,79.1667 76.5,70.8333 76.5,62.5 Z"/></g>
<g><path style="opacity:0.966" fill="#007d6d" d="M 92.5,86.5 C 97.7354,93.9593 102.735,101.626 107.5,109.5C 97.809,107.94 88.1423,106.274 78.5,104.5C 78.3893,103.883 78.056,103.383 77.5,103C 83.0982,97.9086 88.0982,92.4086 92.5,86.5 Z"/></g>
<g><path style="opacity:0.991" fill="#007e6f" d="M 61.5,84.5 C 66.2108,85.1258 70.7108,86.4592 75,88.5C 75.3826,87.944 75.8826,87.6107 76.5,87.5C 76.7857,93.2586 76.4524,98.9252 75.5,104.5C 65.8662,106.019 56.1996,107.352 46.5,108.5C 51.5,100.5 56.5,92.5 61.5,84.5 Z"/></g>
<g><path style="opacity:0.961" fill="#009687" d="M 125.5,93.5 C 129.444,99.951 133.611,106.284 138,112.5C 138.74,113.749 138.573,114.749 137.5,115.5C 130.405,113.568 123.072,112.235 115.5,111.5C 113.902,109.302 112.569,106.969 111.5,104.5C 115.298,101.204 118.964,97.7039 122.5,94C 123.448,93.5172 124.448,93.3505 125.5,93.5 Z"/></g>
<g><path style="opacity:0.982" fill="#005c4d" d="M -0.5,90.5 C -0.5,90.1667 -0.5,89.8333 -0.5,89.5C 9.51613,89.4532 19.5161,89.7865 29.5,90.5C 29.5774,91.7498 30.244,92.5831 31.5,93C 36.4641,94.3709 41.1308,96.2043 45.5,98.5C 41.7425,105.686 37.2425,112.353 32,118.5C 25.9977,117.752 20.1644,116.418 14.5,114.5C 18.5827,107.332 22.9161,100.332 27.5,93.5C 18.3129,91.147 8.97953,90.147 -0.5,90.5 Z"/></g>
<g><path style="opacity:0.995" fill="#002f22" d="M 75.5,104.5 C 75.8333,104.5 76.1667,104.5 76.5,104.5C 76.5,111.167 76.5,117.833 76.5,124.5C 64.0759,123.318 51.7426,121.485 39.5,119C 41.6963,115.323 44.0297,111.823 46.5,108.5C 56.1996,107.352 65.8662,106.019 75.5,104.5 Z"/></g>
<g><path style="opacity:0.992" fill="#004235" d="M 76.5,104.5 C 77.1667,104.5 77.8333,104.5 78.5,104.5C 88.1423,106.274 97.809,107.94 107.5,109.5C 109.474,112.482 111.474,115.482 113.5,118.5C 101.345,121.47 89.0121,123.47 76.5,124.5C 76.5,117.833 76.5,111.167 76.5,104.5 Z"/></g>
<g><path style="opacity:0.932" fill="#003225" d="M 115.5,111.5 C 123.072,112.235 130.405,113.568 137.5,115.5C 132.022,116.545 126.522,117.545 121,118.5C 118.703,116.596 116.87,114.262 115.5,111.5 Z"/></g>
</svg>
